<?xml version="1.0" encoding="UTF-8"?>
<svg xmlns="http://www.w3.org/2000/svg" xmlns:xlink="http://www.w3.org/1999/xlink" viewBox="0 0 36 36" width="36px" height="36px">
<g id="surface5186764">
<rect x="0" y="0" width="36" height="36" style="fill:rgb(9.411765%,9.411765%,9.411765%);fill-opacity:1;stroke:none;"/>
<path style=" stroke:none;fill-rule:nonzero;fill:rgb(100%,100%,100%);fill-opacity:1;" d="M 18 3.375 C 9.921875 3.375 3.375 9.921875 3.375 18 C 3.375 24.90625 8.164062 30.691406 14.601562 32.222656 C 14.265625 32.144531 13.9375 32.054688 13.613281 31.953125 L 13.613281 28.601562 C 13.613281 28.601562 13.0625 28.785156 12.332031 28.785156 C 10.285156 28.785156 9.4375 26.960938 9.226562 26.042969 C 9.097656 25.484375 8.761719 24.957031 8.398438 24.632812 C 7.96875 24.246094 7.765625 24.246094 7.761719 24.113281 C 7.757812 23.839844 8.132812 23.851562 8.3125 23.851562 C 9.226562 23.851562 9.917969 24.824219 10.238281 25.324219 C 11.035156 26.566406 11.890625 26.773438 12.332031 26.773438 C 12.882812 26.773438 13.355469 26.691406 13.679688 26.535156 C 13.832031 25.472656 14.304688 24.527344 15.074219 23.851562 C 11.644531 23.164062 9.226562 21.195312 9.226562 18 C 9.226562 16.351562 9.886719 14.839844 10.988281 13.617188 C 10.875 13.296875 10.6875 12.652344 10.6875 11.601562 C 10.6875 10.90625 10.734375 10.054688 11.054688 9.226562 C 11.054688 9.226562 13.140625 9.238281 15.105469 11.101562 C 16.015625 10.839844 16.984375 10.6875 18 10.6875 C 19.015625 10.6875 19.984375 10.839844 20.894531 11.101562 C 22.859375 9.238281 24.945312 9.226562 24.945312 9.226562 C 25.265625 10.054688 25.3125 10.90625 25.3125 11.601562 C 25.3125 12.734375 25.160156 13.394531 25.070312 13.679688 C 26.136719 14.890625 26.773438 16.382812 26.773438 18 C 26.773438 21.195312 24.355469 23.164062 20.925781 23.851562 C 21.839844 24.65625 22.386719 25.824219 22.386719 27.140625 L 22.386719 31.953125 C 22.0625 32.054688 21.734375 32.144531 21.398438 32.222656 C 27.835938 30.691406 32.625 24.90625 32.625 18 C 32.625 9.921875 26.078125 3.375 18 3.375 Z M 19.019531 32.585938 C 18.683594 32.609375 18.34375 32.625 18 32.625 C 18.34375 32.625 18.683594 32.609375 19.019531 32.585938 Z M 21.253906 32.257812 C 20.601562 32.40625 19.929688 32.511719 19.242188 32.570312 C 19.929688 32.511719 20.601562 32.40625 21.253906 32.257812 Z M 18 32.625 C 17.65625 32.625 17.316406 32.609375 16.980469 32.585938 C 17.316406 32.609375 17.65625 32.625 18 32.625 Z M 16.753906 32.570312 C 16.070312 32.511719 15.398438 32.40625 14.746094 32.257812 C 15.398438 32.40625 16.070312 32.511719 16.753906 32.570312 Z M 16.753906 32.570312 "/>
</g>
</svg>
