<?xml version="1.0" encoding="UTF-8"?>
<svg xmlns="http://www.w3.org/2000/svg" xmlns:xlink="http://www.w3.org/1999/xlink" viewBox="0 0 36 36" width="36px" height="36px">
<g id="surface5190683">
<rect x="0" y="0" width="36" height="36" style="fill:rgb(9.411765%,9.411765%,9.411765%);fill-opacity:1;stroke:none;"/>
<path style=" stroke:none;fill-rule:nonzero;fill:rgb(100%,100%,100%);fill-opacity:1;" d="M 28.5 4.5 L 7.5 4.5 C 5.84375 4.5 4.5 5.84375 4.5 7.5 L 4.5 28.5 C 4.5 30.15625 5.84375 31.5 7.5 31.5 L 28.5 31.5 C 30.15625 31.5 31.5 30.15625 31.5 28.5 L 31.5 7.5 C 31.5 5.84375 30.15625 4.5 28.5 4.5 Z M 11.605469 25.5 C 10.5625 25.5 9.714844 24.652344 9.714844 23.605469 L 9.714844 16.890625 C 9.714844 15.847656 10.5625 15 11.605469 15 C 12.652344 15 13.5 15.847656 13.5 16.894531 L 13.5 23.609375 C 13.5 24.652344 12.652344 25.5 11.605469 25.5 Z M 11.539062 13.074219 C 10.382812 13.074219 9.613281 12.304688 9.613281 11.277344 C 9.613281 10.246094 10.382812 9.476562 11.667969 9.476562 C 12.824219 9.476562 13.597656 10.246094 13.597656 11.277344 C 13.597656 12.304688 12.828125 13.074219 11.539062 13.074219 Z M 25.167969 25.5 C 24.15625 25.5 23.335938 24.679688 23.335938 23.667969 L 23.335938 19.761719 C 23.335938 18.175781 22.359375 18 21.996094 18 C 21.628906 18 20.40625 18.050781 20.40625 19.761719 L 20.40625 23.667969 C 20.40625 24.679688 19.585938 25.5 18.574219 25.5 L 18.453125 25.5 C 17.445312 25.5 16.621094 24.679688 16.621094 23.667969 L 16.621094 16.894531 C 16.621094 15.847656 17.46875 15 18.515625 15 C 19.5625 15 20.410156 15.847656 20.410156 16.894531 C 20.410156 16.894531 20.832031 15 23.707031 15 C 25.535156 15 27 16.464844 27 19.761719 L 27 23.667969 C 27 24.679688 26.179688 25.5 25.167969 25.5 Z M 25.167969 25.5 "/>
</g>
</svg>
